<?xml version="1.0" encoding="utf-8"?>
<!-- Generator: Adobe Illustrator 24.0.0, SVG Export Plug-In . SVG Version: 6.00 Build 0)  -->
<svg version="1.1" id="Layer_1" xmlns="http://www.w3.org/2000/svg" xmlns:xlink="http://www.w3.org/1999/xlink" x="0px" y="0px"
	 viewBox="0 0 510.24 510.24" style="enable-background:new 0 0 510.24 510.24;" xml:space="preserve">
<style type="text/css">
	.st0{fill:#083D77;}
</style>
<g>
	<path class="st0" d="M24.08,272.8c0-9.9,0-19.8,0-29.7c0.13-0.85,0.27-1.69,0.38-2.54c0.95-7.62,1.53-15.32,2.91-22.86
		c8.2-44.89,27.85-84.02,59.3-117.2c41.25-43.51,91.99-67.54,151.46-72.53c20.7-1.74,41.59-0.45,62.14,3.8
		c60.86,12.58,109.02,44.78,144.81,95.14c25.46,35.82,39.28,76.08,40.84,120.22c0.82,23.08-0.52,45.98-6.38,68.48
		c-26.71,102.52-113.5,167.18-207.01,173.7c-14.29,1-28.79,0.64-43.08-0.46c-17.49-1.35-34.52-5.75-51.02-11.74
		C114.96,454.06,69.5,411.58,42.29,349.79c-9.35-21.24-15.03-43.57-17.43-66.69C24.5,279.67,24.34,276.23,24.08,272.8z
		 M476.12,292.59c5.54-32.65,3.47-64.88-5.72-96.6c-9.95-34.34-27.38-64.5-51.98-90.65c-0.37,0.51-0.64,0.89-0.98,1.36
		c-4.24-7.72-10.55-13.21-17.43-18.33c-0.06,1.84,0.03,3.58,0.65,5.09c0.79,1.94,2.05,3.69,3.02,5.57c1.21,2.35,0.59,3.43-1.96,2.97
		c-3.92-0.7-7.87-1.49-11.63-2.77c-5.24-1.78-7.88-5.84-8.74-11.27c-0.62-3.88-0.2-7.5,1.59-10.97c1.2-2.32-0.63-3.1-2.07-3.96
		c-1.6-0.95-2.66,0.08-3.1,1.42c-0.78,2.41-1.73,4.9-1.81,7.39c-0.14,4.44,0.29,8.91,0.52,13.36c0.11,2.22,0.16,4.84,2.46,5.73
		c3.23,1.25,6.71,1.86,10.11,2.61c1.13,0.25,2.35,0.11,3.53,0.14c1.92,0.05,2.47,1.17,2.56,2.93c0.09,1.86-1,1.94-2.36,2.11
		c-1.15,0.15-2.24,0.68-3.37,0.97c-0.65,0.16-1.52,0.48-1.99,0.2c-1.55-0.9-2.55-0.01-3.59,0.82c-1.78,1.42-3.46,2.96-5.26,4.35
		c-1.14,0.89-2.18,0.75-2.82-0.71c-0.22-0.5-0.38-1.1-0.76-1.45c-0.59-0.54-1.56-1.42-1.96-1.24c-0.68,0.3-1.45,1.32-1.45,2.03
		c0.02,2.18,0.41,4.35,0.6,6.53c0.08,0.94,0.01,1.89,0.01,2.83c-0.2,0.09-0.39,0.17-0.59,0.26c-0.72-0.64-1.57-1.19-2.14-1.95
		c-0.84-1.12-1.58-2.35-2.2-3.61c-1.96-3.98-5.04-6.26-9.49-6.81c-2.01-0.25-4.01-0.76-5.97-1.3c-1.79-0.49-3.28-1.32-3.79-3.43
		c-0.17-0.7-1.22-1.45-2.01-1.66c-1.26-0.34-2.65-0.4-3.97-0.32c-6.48,0.39-11.11,4.32-15.65,8.37c-1.93,1.73-3.05,3.88-3.49,6.5
		c-0.46,2.78-1.1,5.55-1.88,8.26c-1.79,6.15-4.38,11.76-10.38,15.08c-3.45,1.91-4.73,4.92-3.73,8.77c0.49,1.89,1,3.8,1.8,5.57
		c1.56,3.44,3.68,3.85,6.64,1.44c1.01-0.82,1.94-1.74,3.07-2.77c2.66,3.65,4.06,7.44,4.25,11.62c4.29,0.37,4.99-0.11,6.47-3.9
		c0.77-1.96,1.38-4.15,2.68-5.71c2.24-2.69,2.03-5.09,0.14-7.64c-1.65-2.22-2-4.62-0.91-7.1c2.01-4.58,4.1-9.12,6.29-13.61
		c0.28-0.57,1.64-1.23,2.02-1.01c0.66,0.39,1.35,1.43,1.32,2.17c-0.06,1.46-0.55,2.91-0.98,4.33c-0.55,1.8-1.35,3.52-1.82,5.33
		c-1.01,3.95,0.33,6.39,4.14,7.71c0.96,0.33,1.97,0.54,2.97,0.72c2.54,0.47,5.11,0.82,7.64,1.37c0.66,0.14,1.2,0.84,1.8,1.28
		c-0.58,0.55-1.07,1.33-1.76,1.59c-1.08,0.41-2.29,0.53-3.45,0.64c-4.78,0.48-4.84,0.47-4.49,5.18c0.11,1.48-0.37,2.34-1.81,2.4
		c-2.29,0.1-2.94,1.45-2.86,3.44c0.13,3.53-1.77,5.67-4.93,6.58c-3.61,1.04-7.29,1.85-10.99,2.54c-3.23,0.61-5.67-1.18-6.33-4.42
		c-0.26-1.3-0.27-2.65-0.45-3.98c-0.07-0.52-0.29-1.02-0.44-1.52c-0.76,1.03-1.15,2.02-1.09,2.98c0.31,4.5-1.76,7.85-4.98,10.66
		c-2.13,1.85-4.39,3.55-6.43,5.49c-0.8,0.76-1.23,1.97-1.67,3.04c-0.43,1.05-0.32,2.52-1.03,3.22c-3.21,3.21-6.37,6.63-11.47,6.63
		c-0.48,0-0.97,0.32-1.45,0.49c-0.21,0.28-0.42,0.56-0.62,0.84c0.86,0.53,1.74,1.02,2.57,1.59c1.09,0.76,2.18,1.54,3.19,2.41
		c1.39,1.21,2.16,2.73,1.66,4.61c-0.53,1.97-1.73,3.33-3.83,3.68c-1.55,0.26-3.1,0.46-4.65,0.68c-7.04,0.99-7.72,1.6-9.4,8.53
		c-0.15,0.61-0.25,1.23-0.43,1.83c-1.2,3.99-0.02,6.87,3.52,9.22c3.75,2.49,4.05,4.71,1.88,8.61c-0.53,0.96-1.24,1.82-1.78,2.77
		c-1.99,3.45-3.91,6.93-5.93,10.37c-0.63,1.07-1.27,2.29-2.24,2.97c-5.53,3.88-8.34,9.67-11.19,15.46
		c-1.04,2.11-1.45,4.22-0.82,6.59c0.43,1.65,0.49,3.42,0.52,5.14c0.06,4.01-0.07,8.01,0.03,12.02c0.07,2.74,1.03,5.1,3.04,7.17
		c2.32,2.39,4.26,5.13,6.41,7.69c0.79,0.94,1.61,1.89,2.57,2.64c2,1.55,4.07,3.02,6.19,4.41c0.9,0.59,1.98,1.25,2.99,1.25
		c4.32,0.01,8.64-0.23,12.96-0.34c3.85-0.09,7.5-0.8,10.61-3.24c1.08-0.85,1.94-0.68,3.15-0.09c2.86,1.4,5.77,3.14,8.83,3.62
		c3.76,0.59,5.05,0.51,4.9,6.15c-0.03,1.09-0.1,2.26-0.5,3.25c-1.5,3.69-0.45,6.98,1.56,10.03c1.81,2.75,3.84,5.35,5.84,7.98
		c1.49,1.96,2.24,3.97,1.86,6.55c-0.26,1.8,0.38,3.71,0.41,5.57c0.02,1.39,0.15,3.09-0.55,4.14c-3.5,5.32-3.73,10.8-1.63,16.64
		c1.19,3.32,2.11,6.73,3.15,10.1c1.36,4.42,2.72,8.84,4.08,13.26c1.08,3.5,2.25,6.98,3.18,10.52c0.58,2.21,1.83,3.45,4.05,3.58
		c1.32,0.08,2.67-0.02,3.99-0.18c11.88-1.45,17.96-9.85,23.2-19.32c1.27-2.29,2.6-4.67,4.4-6.51c2.5-2.56,3.4-5.24,2.09-8.52
		c-0.9-2.26-0.18-3.94,1.41-5.5c2.58-2.53,5.07-5.15,7.73-7.6c3.75-3.45,4.91-7.7,4.32-12.59c-0.44-3.66-0.82-7.33-1.36-10.98
		c-0.48-3.21,0.04-6.01,2.33-8.49c3.41-3.69,6.88-7.35,9.96-11.32c4.8-6.19,9.46-12.52,13.83-19.02c1.42-2.11,1.84-4.94,2.53-7.48
		c0.16-0.6-0.27-1.55-0.74-2.03c-0.2-0.21-1.23,0.3-1.83,0.58c-0.85,0.4-1.6,1.13-2.48,1.3c-3.46,0.65-6.95,1.36-10.45,1.52
		c-0.97,0.04-2.19-1.63-2.93-2.75c-0.18-0.28,0.97-1.65,1.72-2.24c0.64-0.51,1.57-0.68,2.4-0.93c9.84-2.99,18.42-8.31,26.45-14.54
		c2.94-2.28,5.22-5.24,6.35-8.89c0.6-1.95,0.67-3.76-1.28-5.27c-1.63-1.26-3.17-2.77-4.37-4.44c-1.21-1.69-2.58-2.21-4.43-1.65
		c-1.43,0.43-2.78,1.08-4.22,1.48c-1.86,0.52-3.62,1.01-4.46-1.74c-0.34-1.11-1.83-1.84-2.74-2.8c-1.66-1.75-3.35-3.48-4.86-5.35
		c-0.5-0.61-0.49-1.64-0.71-2.47c0.2-0.17,0.4-0.34,0.61-0.51c0.93,0.57,2.02,0.98,2.77,1.74c3.36,3.41,7.52,4.62,12.14,4.88
		c1.7,0.1,3.4,0.49,5.08,0.84c2.17,0.46,4.3,1.2,6.49,1.47c2.09,0.25,4.24,0.09,6.36,0.05c6.45-0.13,11.43,2.96,15.76,7.31
		c0.93,0.93,1.21,2.49,1.93,3.66c0.43,0.7,1.12,1.73,1.74,1.76c3.86,0.22,5.63,2.67,6.85,5.88
		C472.25,279.79,475.52,285.72,476.12,292.59z M204.85,476.7c0.14-0.18,0.27-0.35,0.41-0.53c-0.41-0.71-0.72-1.52-1.24-2.13
		c-3.23-3.73-5.1-7.96-5.74-12.91c-0.22-1.73-1.83-3.28-2.8-4.92c-0.54-0.91-1.54-1.83-1.53-2.73c0.02-2.49,0.07-5.11,0.86-7.43
		c0.73-2.15,0.14-3.05-1.61-3.82c-0.43-0.19-0.84-0.45-1.19-0.75c-1.46-1.26-1.23-1.97,0.57-2.75c0.57-0.25,1.03-1.09,1.22-1.75
		c0.21-0.71,0.05-1.53,0.05-2.25c4.92-1.73,6.26-4.79,4.3-9.53c-0.03-0.07-0.05-0.15-0.09-0.22c-0.78-1.23-0.7-2.17,0.8-2.78
		c0.57-0.23,1.04-0.69,1.58-1.02c2-1.24,3.16-2.68,2.06-5.25c-0.3-0.71,0.2-1.89,0.57-2.75c1.86-4.38,3.34-8.79,1.82-13.61
		c-0.68-2.14,0.3-4.43,2.31-5.61c1.01-0.59,1.9-1.39,2.93-1.94c1.48-0.79,2.98-1.8,4.58-2.07c2.04-0.34,3.17-1.34,3.56-3.19
		c0.45-2.15,0.78-4.33,1-6.51c0.96-9.57,0.61-19.36,4.78-28.39c0.88-1.91-0.18-3.39-1.4-4.64c-3.93-4.05-8.63-7.08-14.23-7.74
		c-6.85-0.81-12.7-3.91-18.57-7.01c-1.34-0.71-2.33-2.42-3.05-3.88c-2.5-5.09-5.95-8.72-11.74-10.22
		c-7.02-1.82-13.31-4.92-15.15-12.99c-0.06-0.27-0.33-0.49-0.3-0.44c-2.3,0.78-4.35,1.65-6.49,2.15c-1.66,0.39-3.43,0.32-5.15,0.48
		c-1.99,0.19-3.65-0.2-4.98-1.94c-0.61-0.8-1.73-1.33-2.72-1.68c-1.7-0.59-3.5-0.86-5.22-1.4c-1.71-0.53-3.06-0.15-4.24,1.15
		c-1.58,1.75-3.13,3.53-4.82,5.17c-0.6,0.58-1.56,1.1-2.37,1.11c-3.38,0.03-6.76-0.02-10.13-0.27c-5.84-0.44-6.96-1.67-7.4-7.5
		c-0.22-2.86-0.48-5.71-0.72-8.54c-2.89-0.25-5.48-0.37-8.04-0.7c-4.34-0.56-5.06-2.01-2.78-5.73c1.88-3.08,2.65-6.32,2.11-9.91
		c-4.06,0.35-7.3,1.62-8.7,5.91c-0.78,2.39-2.79,3.52-5.35,3.47c-5.26-0.09-9.2-3.04-10.43-8.22c-1.69-7.1-0.28-13.88,2.77-20.36
		c1.28-2.71,3.84-3.62,6.65-3.69c2.51-0.06,5.02,0.12,7.54,0.16c1.66,0.02,3.33,0.08,4.38-1.63c1.54-2.51,4.09-2.95,6.42-2.05
		c3.14,1.22,6.26,2.74,7.54,6.46c0.86,2.49,2.11,4.89,3.49,7.14c0.61,0.99,2,1.5,3.04,2.22c0.26-1.23,0.92-2.53,0.71-3.67
		c-0.45-2.44-1.21-4.86-2.1-7.19c-1.95-5.11-1.65-7.21,2.51-10.78c2.73-2.34,5.84-4.24,8.63-6.53c1.15-0.94,2.5-2.29,2.7-3.62
		c0.93-6.01,4.25-10.76,7.77-15.37c0.92-1.2,2.86-1.61,4.3-2.43c1.15-0.66,2.48-1.21,3.33-2.17c0.9-1.03,1.34-2.46,1.95-3.74
		c1.99-4.14,3.69-5.24,7.99-3.56c3.09,1.21,5.37,0.35,7.95-0.83c1.78-0.81,3.68-1.34,5.52-2c2.46-0.88,3.03-2.63,1.19-4.47
		c-1.42-1.42-3.21-2.49-4.88-3.65c-1.28-0.89-2.25-1.76-1.11-3.43c0.79-1.15,0.48-1.95-0.82-2.6c-1.11-0.56-2.08-1.41-3.11-2.14
		c0.08-0.3,0.17-0.6,0.25-0.9c1.5,0,3.14-0.38,4.49,0.07c4.55,1.52,8.6,0.67,12.52-1.85c1.23-0.79,2.7-1.24,4.09-1.77
		c0.5-0.19,1.08-0.19,1.63-0.28c0.13,0.18,0.27,0.37,0.4,0.55c-2.87,3.77-5.74,7.55-8.34,10.97c2.41,1.21,4.65,1.84,6.22,3.23
		c2.9,2.56,6.18,2,7.27-1.74c0.34-1.17,0.47-2.53,0.22-3.71c-0.18-0.88-0.99-2.04-1.77-2.28c-1.52-0.48-1.98-1.37-2.04-2.75
		c-0.14-3.38-0.29-6.75-0.43-10.12c-0.16-3.89-0.52-7.63-3.53-10.66c-0.96-0.96-1.54-2.66-1.61-4.05
		c-0.19-3.44,0.05-6.89,0.06-10.34c0-1.59-0.13-3.18-0.2-4.77c-0.24-0.05-0.48-0.1-0.73-0.15c-0.47,0.75-0.85,1.58-1.44,2.22
		c-1.62,1.76-3.22,3.57-5.06,5.07c-0.67,0.54-2.35,0.65-2.97,0.18c-0.62-0.48-0.86-2.03-0.61-2.93c0.47-1.71,1.45-3.27,2.12-4.93
		c0.53-1.31,1.22-3.04-0.79-3.47c-1.94-0.42-2.71-1.46-3.37-3.11c-0.69-1.74-4.58-3.33-6.98-3.07c-2.18,0.23-2.74,2-3.14,3.65
		c-1.17,4.87-2.96,9.3-7.52,11.88c3.25,7.23,3.28,7.27-2.98,12.24c-2.86,2.27-4.95,4.97-6.11,8.45c-0.49,1.47-1.19,2.92-2.04,4.22
		c-0.45,0.69-1.42,1.03-2.16,1.53c-0.42-0.85-1.22-1.71-1.2-2.55c0.07-2.42,0.36-4.85,0.77-7.24c0.28-1.62-0.01-2.75-1.27-3.92
		c-3.04-2.84-5.87-5.91-8.87-8.79c-2.1-2.02-2.5-4.31-1.92-7.08c1.16-5.49,4.14-9.73,8.39-13.25c3.32-2.76,6.5-5.69,9.84-8.42
		c2.55-2.08,5.24-3.99,7.91-5.93c0.64-0.46,1.43-0.71,2.52-1.24c-1.19,4.43-3.99,7.82-3.96,12.17c2.73-0.4,5.22-0.69,7.67-1.15
		c2.93-0.55,3.5-2.01,1.84-4.49c-0.88-1.32-1.81-2.62-3.12-4.51c2.92-0.29,5.17-0.42,7.37-0.79c0.75-0.13,1.78-0.72,2.03-1.36
		c2.2-5.54,4.32-11.11,6.29-16.73c0.51-1.46,1.42-2.06,2.58-1.69c1.48,0.47,3.23,1.15,4.07,2.31c1.24,1.73,1.84,3.93,2.59,5.98
		c1.08,2.95,0.37,5.54-1.79,7.79c-1.41,1.47-2.72,3.05-4.16,4.5c-1.51,1.51-2.81,3.25-5.57,2.12c-1.66-0.68-3.53,1.16-3.66,3.07
		c-0.15,2.17,1.33,2.14,2.92,2.41c1.29,0.23,2.73,0.93,3.62,1.88c2.08,2.22,3.85,4.74,5.79,7.09c0.35,0.43,0.91,0.96,1.39,0.98
		c4.64,0.18,8.86-5.13,7.73-9.64c-0.25-0.99-0.66-2.02-0.56-2.98c0.09-0.89,0.77-1.72,1.18-2.57c0.65,0.6,1.32,1.18,1.92,1.83
		c0.25,0.27,0.34,0.7,0.5,1.06c0.73,1.63,1.79,1.62,2.93,0.49c1.22-1.22,2.52-2.43,3.43-3.86c0.44-0.69,0.21-1.91,0.07-2.86
		c-0.2-1.34-0.62-2.65-0.93-3.97c-0.22-0.95-0.13-2.13-0.67-2.83c-1.9-2.44-1.94-2.87-0.13-5.18c1.69-2.16,2.74-5.06,1.52-7.24
		c-1.21-2.17-3.14-3.88-4.09-6.45c-0.44-1.19-1.32-2.28-1.22-3.7c0.11-1.57,0.33-3.13,0.43-4.69c0.23-3.49-1.69-5.61-5.21-5.75
		c-0.93-0.04-1.87,0.09-3,0.15c-0.06-1.93-1.41-2.49-2.87-1.86c-6.09,2.63-11.67,5.86-13.4,13.04c-0.23,0.95-0.77,1.9-1.39,2.67
		c-1.24,1.53-1.41,2.57,0.82,3.19c1.85,0.51,1.93,1.86,0.86,3.05c-2.25,2.5-4.66,4.86-7.05,7.22c-0.38,0.37-0.99,0.51-1.61,0.8
		c-0.05-0.49-0.16-0.76-0.07-0.94c1.24-2.5,1.43-4.81-0.55-7.15c-0.46-0.54-0.28-2.01,0.11-2.8c1.01-2.04,2.38-3.89,3.47-5.9
		c1.15-2.13,1.97-4.46,3.24-6.51c1.42-2.3,3.39-3.88,6.24-4.62c1.85-0.48,3.38-2.18,5.49-3.64c-2.95-0.92-5.22-1.38-7.27-2.32
		c-3.01-1.37-5.08-0.71-6.85,2.03c-2.7,4.19-6.02,8.05-8.22,12.48c-1.57,3.16-3.1,6.04-5.86,8.31c-2.22,1.82-4.23,3.93-6.16,6.07
		c-2.99,3.3-7.48,3.08-9.97-0.73c-0.5-0.77-0.86-2.53-0.52-2.78c0.96-0.7,2.54-1.44,3.48-1.09c2.12,0.77,3.86,1.22,6.16,0.25
		c1.59-0.68,2.36-1.26,2.29-2.9c-0.16-3.72,1.38-6.85,3.34-9.86c2.53-3.88,5.01-7.79,7.46-11.72c0.46-0.74,0.68-1.62,1.01-2.43
		c-0.15-0.19-0.3-0.38-0.46-0.58c-1.27,0.44-2.62,0.72-3.78,1.35c-2.34,1.27-4.56,2.76-6.88,4.08c-1.26,0.72-2.51,0.88-3.13-0.58
		c0.41-0.81,1.08-1.67,0.91-1.89c-1.67-2.21,0.09-3.4,1.22-4.86c0.43-0.56,0.98-1.77,0.81-1.92c-0.65-0.58-1.55-0.99-2.42-1.17
		c-0.53-0.11-1.27,0.18-1.76,0.52c-4.14,2.84-8.28,5.68-12.3,8.68c-0.58,0.43-0.82,1.72-0.73,2.56c0.3,2.8-0.01,5.64-2.04,7.47
		c-2.26,2.03-2.92,4.15-2.76,7.01c0.12,2.1-1.36,2.94-3.09,1.69c-1.52-1.1-2.68-2.76-3.83-4.3c-0.66-0.88-0.97-2.02-1.53-3.25
		c-1.64,1.32-3.13,2.26-4.3,3.5c-8.3,8.79-17.13,17.17-24.68,26.57c-23.29,29.01-38.23,62.03-44.75,98.65
		c-2.3,12.91-5.61,25.85-0.77,39.21c1.93,5.32,4.07,10.27,7.32,14.8c0.46,0.64,1.2,1.07,1.81,1.59c0.26-0.15,0.52-0.3,0.78-0.44
		c-2.44-6.76-4.89-13.52-7.33-20.28c0.3-0.16,0.6-0.31,0.91-0.47c0.78,1.01,1.66,1.96,2.33,3.04c3.31,5.34,6.73,10.62,9.77,16.11
		c1.91,3.47,3.12,7.32,4.83,10.91c0.64,1.36,1.54,2.95,2.77,3.61c4.26,2.29,8.6,4.54,13.13,6.19c6.47,2.36,13.16,4.1,19.71,6.24
		c3.67,1.2,6.64,3.49,8.94,6.63c3.95,5.39,9.87,7.83,15.71,10.35c0.25,0.11,0.59,0.01,0.93,0.01c0.31-0.93,0.6-1.77,0.88-2.61
		c5.13,1.88,8.32,9.15,6.17,13.97c-0.92,2.06-2.44,3.87-3.32,5.95c-0.59,1.4-1.1,3.26-0.67,4.6c1.18,3.68,1.6,7.35,1.11,11.15
		c-0.25,1.97,0.44,3.44,1.87,4.8c2.04,1.95,4.23,3.86,5.77,6.18c4.56,6.86,10.68,11.84,17.78,15.81c5.8,3.24,9.7,8.13,11.85,14.4
		c0.71,2.08,1.43,4.16,1.94,6.29c1.8,7.5,4.11,14.8,7.42,21.79c0.96,2.02,1.81,4.33,1.83,6.51c0.05,4.05,1.29,7.44,3.6,10.7
		c1.19,1.68,2.48,3.85,2.39,5.74c-0.16,3.63,1.33,6.14,4,7.94c1.84,1.25,2.81,2.4,2.5,4.72c-0.13,0.95,0.52,2.11,1.08,3.02
		c3.26,5.35,7.22,10.18,11.23,14.97C196.08,475.45,200.55,475.88,204.85,476.7z M207.23,76.17c1.57-0.22,2.87-0.42,4.19-0.59
		c3.7-0.5,6.35,1.6,6.47,5.31c0.21,6.65-0.42,13.16-3.38,19.29c-0.78,1.61-1.47,3.38-1.61,5.13c-0.13,1.61,0.12,3.58,0.97,4.87
		c1.14,1.72,0.94,2.76-0.37,4.04c-1.29,1.27-2.79,2.44-3.67,3.96c-1.46,2.53-3.44,5.28-3.5,7.98c-0.15,6.23,0.53,12.51,1.24,18.72
		c0.37,3.27,2.75,5.55,5.37,7.43c1.12,0.8,1.93,0.66,2.69-0.56c2.46-3.99,5.59-7.71,7.32-11.99c1.67-4.13,4.67-6.33,8.05-8.44
		c4.11-2.58,8.29-5.04,12.45-7.52c0.46-0.27,1.02-0.49,1.54-0.5c7.1-0.24,12.12-4.26,16.68-9.1c3.1-3.29,4.72-6.7,1.86-11.16
		c-1.65-2.57-0.54-6.37,1.72-7.13c2.43-0.81,3.85-2.49,4.49-4.75c1.51-5.32,3.25-10.62,4.11-16.06c0.99-6.27,3.2-11.95,6.44-17.27
		c0.68-1.12,2.15-1.72,3.03-2.75c1.22-1.43,2.49-2.93,3.27-4.61c0.65-1.4-0.24-2.38-1.91-2.34c-1.73,0.04-3.46,0.19-5.17,0.06
		c-0.84-0.07-1.63-0.68-2.45-1.05c0.4-0.73,0.68-1.56,1.22-2.16c2.55-2.8,2.62-4.37-0.24-6.87c-1.2-1.05-2.72-1.99-4.25-2.34
		c-5.29-1.23-10.57-1.59-15.5,1.46c-0.93,0.57-1.94,1.1-2.99,1.36c-1.49,0.37-3.05,0.48-4.58,0.7c-0.04-0.2-0.08-0.41-0.13-0.61
		c-0.91,1.32-1.83,2.64-2.74,3.97c-0.2-0.02-0.4-0.04-0.61-0.06c0.05-3.15-1.81-3.16-3.97-2.85c-0.97,0.14-1.97,0.02-3.03,0.02
		c1.74-3.69,1.29-4.35-2.83-4.38c-0.16,0-0.31,0-0.47,0.02c-12.87,0.92-25.54,3.04-38.02,6.33c-1.09,0.29-2.36,0.8-3.04,1.63
		c-3.23,3.9-4.87,8.62-6.96,13.56c2-0.18,3.55-0.32,5.7-0.51c-2.87,2.56-5.41,4.55-7.59,6.88c-0.87,0.93-1.7,3.07-1.23,3.82
		c0.79,1.24,2.64,1.83,4.07,2.63c0.87,0.49,1.91,0.74,2.7,1.34c2.27,1.73,3.23,1.59,5.1-0.46c4.67-5.13,9.42-10.19,14.19-15.23
		c0.85-0.9,1.9-1.68,3-2.25c3.53-1.83,7.11-3.55,10.69-5.28c0.34-0.17,0.79-0.12,1.15-0.16c-0.89,2.13-1.54,4.23-2.63,6.07
		c-0.65,1.1-1.86,2.1-3.04,2.59c-2.01,0.84-4.18,1.32-6.32,1.83c-1.91,0.46-2.87,1.6-3.33,3.49c-0.42,1.73-0.77,3.76-1.89,4.98
		C206.99,69.42,207.07,72.57,207.23,76.17z M287.06,191.54c0.24,0.15,0.49,0.3,0.73,0.46c1.23-0.99,2.39-2.1,3.71-2.96
		c2.05-1.33,4.09-2.87,6.36-3.62c2.52-0.83,3.28-1.29,2.72-3.99c-0.25-1.2-0.69-2.43-1.31-3.48c-1.78-3.03-3.71-5.98-5.56-8.97
		c-0.79-1.27-1.46-2.42-0.61-4.11c0.78-1.55-0.69-4.75-2.19-5.24c-2.3-0.76-3.25,1-4.12,2.57c-1.82,3.29-1.09,6.37,2.13,9.44
		c2.73,2.61,2.62,3.15,0.53,6.3C286.67,182.12,286.72,186.84,287.06,191.54z M412.59,356.17c-0.22-0.07-0.45-0.15-0.67-0.22
		c-0.89,1.36-1.72,2.75-2.68,4.06c-1.99,2.71-3.58,6.04-6.2,7.87c-2.99,2.09-4.23,4.8-5.55,7.79c-0.92,2.07-2.04,4.05-3.04,6.09
		c-0.3,0.62-0.68,1.29-0.7,1.95c-0.06,1.64,3.01,4.56,5.11,5.03c2.35,0.52,3.79-0.55,4.54-2.67c2.82-7.96,5.69-15.91,8.36-23.91
		C412.39,360.27,412.34,358.17,412.59,356.17z M163.32,56.38c-0.66,0-1.01-0.11-1.24,0.02c-2.46,1.3-4.86,2.24-7.82,2.58
		c-2.79,0.32-5.47,2.54-7.91,4.32c-0.86,0.63-1.32,2.51-1.11,3.67c0.12,0.65,1.99,1.43,3.03,1.38c2.65-0.13,5.28-0.66,7.9-1.11
		c3.06-0.52,5.8-1.53,6.75-4.96c0.06-0.21,0.45-0.34,1.19-0.85c0.97,4.99,2.59,9.39,6.58,13.32c0.41-1.68,1.03-3.04,0.99-4.38
		c-0.08-2.91,0.73-5.39,2.61-7.59c0.48-0.57,0.81-1.28,1.2-1.91c-3.27-2.22-6.12-2.41-9.37-0.99c-1.18,0.52-2.54,0.61-4.32,1.01
		C162.43,59.02,162.82,57.86,163.32,56.38z M324.06,70.98c0.63,0.36,1,0.68,1.42,0.8c1.25,0.34,2.53,0.59,3.79,0.88
		c-0.31-1.13-0.43-2.36-0.96-3.38c-2.84-5.46-3.88-4.68,1.86-8.8c2.19-1.57,2.09-3.03-0.19-4.47c-2.88-1.82-7.26-0.57-9.27,2.86
		c-1.06,1.81-2.31,2.71-4.45,2.87c-0.97,0.07-2.61,1.18-2.66,1.92c-0.23,3.23,0.8,6.28,3.23,8.46c0.91,0.82,1.3,1.34,1.43,2.55
		c0.08,0.8,1.11,1.72,1.95,2.11c0.35,0.16,1.5-0.77,1.9-1.44C322.89,74,323.39,72.53,324.06,70.98z M273.63,129.35
		c-5.24-0.46-10.22-0.95-15.2-1.27c-0.59-0.04-1.62,0.73-1.8,1.32c-1.76,5.91,2,10.99,8.21,11.23c4.23,0.17,7.53-2.11,8.39-6.05
		C273.6,132.86,273.52,131.04,273.63,129.35z M182.7,66.85c-0.26-0.54-0.54-2.04-1.19-2.22c-0.79-0.22-2.14,0.44-2.8,1.14
		c-1.32,1.41-2.52,3.01-3.44,4.71c-1.01,1.87-0.76,3.86,0.74,5.46c2.2,2.35,4.97,3.59,8.19,3.47c2.4-0.09,4.41-1.11,5.58-3.34
		c1.68-3.19,1.04-4.52-2.46-5.18c-0.69-0.13-1.39-0.29-2.09-0.35C183.31,70.36,182.03,69.66,182.7,66.85z M102.86,274.78
		c0.03,0.25,0.06,0.5,0.09,0.75c0.9,0.15,1.81,0.45,2.71,0.43c4.64-0.1,8.54,1.4,11.85,4.75c2.12,2.15,7.53,2.18,9.88,0.31
		c-0.3-0.34-0.54-0.81-0.91-0.99c-4.85-2.39-9.63-4.96-14.63-7.01C108.66,271.72,105.67,273.38,102.86,274.78z M284.43,170.95
		c-2.05,0.85-4.13,1.63-6.11,2.6c-0.51,0.25-1,1.13-1,1.72c-0.01,2.26-0.05,4.56,0.36,6.76c0.52,2.8,2.13,3.19,4.33,1.3
		C284.75,180.98,285.99,175.26,284.43,170.95z M178.43,56.35c2.35-1.97,4.38-3.66,6.4-5.35c0.16,0.19,0.31,0.39,0.47,0.58
		c-0.53,0.76-1.06,1.52-1.59,2.27c-0.51,0.72-1.02,1.43-1.57,2.19c2.44,1.18,6.23-0.37,6.75-2.61c0.13-0.55-0.16-1.53-0.58-1.82
		c-1.54-1.07-2.02-2.53-1.99-4.25c0.03-1.87-0.81-2.03-2.38-1.47C179.83,47.35,177.87,50.72,178.43,56.35z M125.79,286.43
		c5.22,2.4,10.28,0.27,15.49,0.03C138.29,280.72,128.13,281.23,125.79,286.43z M124.87,272.71c0.21-0.09,0.41-0.19,0.62-0.28
		c-0.36-1.99-0.96-3.84-2.9-4.85c-0.19,0.12-0.39,0.23-0.58,0.35C122.96,269.52,123.92,271.12,124.87,272.71z M143.51,287.55
		c1.62-0.3,3.03-0.56,4.5-0.83C146.86,284.49,145.78,284.69,143.51,287.55z M121.25,288.27c-0.09-0.45-0.19-0.9-0.28-1.35
		c-1.02,0.19-2.04,0.37-3.07,0.56c0.13,0.47,0.31,1.36,0.39,1.35C119.29,288.72,120.27,288.48,121.25,288.27z M216.72,467.66
		c-0.06-0.21-0.11-0.42-0.17-0.62c-0.97,0-1.96-0.09-2.91,0.05c-0.35,0.05-0.62,0.67-0.93,1.03c0.41,0.28,0.9,0.86,1.2,0.78
		C214.89,468.61,215.79,468.09,216.72,467.66z"/>
	<path class="st0" d="M324.51,238.31c-0.19-2.77-0.37-5.42-0.54-8.07c-0.12-1.86-1.03-2.86-2.97-2.88
		c-9.17-0.13-18.4-0.84-26.82,4.09c-1.57,0.92-3.42,1.39-5.13,2.07c-0.12-0.23-0.23-0.47-0.35-0.7c0.87-0.49,1.73-1.02,2.63-1.45
		c3.55-1.7,5.83-4.31,7.46-8.02c1.41-3.2,3.96-5.94,6.29-8.65c0.73-0.85,2.35-1.17,3.6-1.3c1.86-0.19,3.76,0.03,5.65,0.02
		c0.61,0,1.5,0.04,1.79-0.32c1.84-2.29,3.64-1.02,5.39-0.02c2.17,1.25,4.23,2.7,6.41,3.94c1.73,0.99,2.27,2.39,2.21,4.3
		c-0.05,1.79-1.12,2.41-2.56,2.89c-1.76,0.6-2.26,1.88-1.55,3.54c0.76,1.77,3.43,2.66,5,1.58c2.66-1.83,4.51-4.33,5.42-7.47
		c0.66-2.25,1.25-2.55,2.97-0.95c1.77,1.64,3.39,3.48,4.84,5.4c1.31,1.73,6.88,2.5,8.24,0.83c1.22-1.49,0.73-2.97-0.53-4.2
		c-1.45-1.4-2.98-2.71-4.57-4.15c0.56-0.54,0.92-0.95,1.34-1.27c2.3-1.74,3.51-1.47,4.24,1.31c0.96,3.67,2.86,6.51,5.96,8.71
		c3.81,2.72,7.82,3.44,12.24,1.87c2.06-0.74,4.13-1.47,6.19-2.2c1.75,3.6,0.69,8.47-2.31,10.9c-4.94,4.01-10.45,5.05-16.58,3.43
		c-4.24-1.12-8.52-2.13-12.81-3.03c-3.08-0.64-3.74,0.12-3.64,3.29c0.04,1.34-0.28,2.69-0.43,4.04c-1.44-0.45-2.91-0.82-4.3-1.39
		c-0.78-0.32-1.43-0.95-2.11-1.48C330.47,239.3,330.47,239.3,324.51,238.31z M319.44,219.48c-0.39-2.47,0.02-4.59-2.28-5.2
		c-1.09-0.29-2.75,2.66-2.12,4.39c0.47,1.29,1.83,2.26,2.8,3.38C318.47,221.04,319.1,220.03,319.44,219.48z"/>
	<path class="st0" d="M378.24,250.03c1.67,2.21,3.17,4.04,4.48,5.99c0.91,1.35,1.54,2.89,2.35,4.31
		c3.59,6.32,7.31,12.57,10.75,18.97c1.08,2.02,1.55,4.4,2.07,6.67c0.16,0.7-0.4,1.56-0.63,2.35c-0.85-0.25-1.93-0.26-2.52-0.8
		c-1.42-1.32-2.87-2.74-3.84-4.39c-1.77-3.03-3.14-6.28-4.77-9.4c-1.77-3.39-3.67-6.71-5.47-10.09c-1.28-2.41-2.65-4.79-3.67-7.31
		C376.25,254.49,376.36,252.5,378.24,250.03z"/>
	<path class="st0" d="M381.65,212.95c-2.67-0.84-5.4-1.52-8-2.56c-2.33-0.93-4.44-1.23-6.73,0.09c-1.2,0.69-2.61,1.16-3.98,1.36
		c-0.85,0.12-2.23-0.17-2.61-0.76c-0.54-0.84-0.79-2.3-0.42-3.2c0.54-1.32,1.64-2.47,2.66-3.54c1.31-1.37,2.57-2.02,4.3-0.15
		c2.09,2.26,6.99,1.01,8.15-1.92c0.24-0.61,0.01-1.51-0.25-2.17c-0.28-0.71-1.16-1.26-1.24-1.94c-0.11-0.94,0.29-1.94,0.47-2.91
		c0.78,0.59,2.06,1.05,2.25,1.8c1.13,4.33,4.2,6.64,8.01,8.3c1.77,0.77,3.25,1.76,2.79,4.02c-0.48,2.32-2.19,3.08-4.34,3.18
		c-0.31,0.01-0.63,0-0.94,0C381.73,212.69,381.69,212.82,381.65,212.95z"/>
	<path class="st0" d="M326.09,204.41c4.51,2,8.58,3.77,11.31,7.86C333.52,213.08,327.25,208.81,326.09,204.41z"/>
</g>
</svg>
